<svg xmlns="http://www.w3.org/2000/svg" viewBox="0 0 64 64" role="img" aria-labelledby="title">
  <title id="title">AI Chess Trainer</title>
  <rect width="64" height="64" rx="14" fill="#0f172a"/>
  <path d="M16 50h32v5H16z" fill="#f8fafc"/>
  <path d="M20 44h24v6H20z" fill="#38bdf8"/>
  <path d="M25 17c4-7 16-7 20 1 2 4 1 9-2 12l-5 5h7v9H21v-7l12-9c3-2 4-6 1-8-3-3-7-1-9 3l-6-2c1-1 3-3 6-4z" fill="#f8fafc"/>
  <circle cx="38" cy="18" r="2" fill="#0f172a"/>
  <path d="M14 13h8v8h-8zM42 10h8v8h-8zM48 35h6v6h-6z" fill="#22c55e"/>
</svg>
